<mxfile host="app.diagrams.net" modified="2024-04-05T18:18:48.159Z" agent="Mozilla/5.0 (Windows NT 10.0; Win64; x64) AppleWebKit/537.36 (KHTML, like Gecko) Chrome/109.0.0.0 Safari/537.36" etag="FWKxj3kczMQDq6cfIXxa" version="24.2.2" type="github">
  <diagram name="Страница — 1" id="gs51xV0ueXC-iyVvFUpw">
    <mxGraphModel dx="2010" dy="768" grid="1" gridSize="10" guides="1" tooltips="1" connect="1" arrows="1" fold="1" page="1" pageScale="1" pageWidth="827" pageHeight="1169" math="0" shadow="0">
      <root>
        <mxCell id="0" />
        <mxCell id="1" parent="0" />
        <mxCell id="27EXUT97YrbOmOfqT-gu-7" value="" style="curved=1;endArrow=classic;html=1;rounded=0;exitX=1;exitY=0.5;exitDx=0;exitDy=0;entryX=0;entryY=0;entryDx=0;entryDy=0;" parent="1" source="27EXUT97YrbOmOfqT-gu-21" target="27EXUT97YrbOmOfqT-gu-22" edge="1">
          <mxGeometry width="50" height="50" relative="1" as="geometry">
            <mxPoint x="456.5685424949238" y="309.74873734152914" as="sourcePoint" />
            <mxPoint x="560" y="375" as="targetPoint" />
            <Array as="points">
              <mxPoint x="540" y="300" />
            </Array>
          </mxGeometry>
        </mxCell>
        <mxCell id="27EXUT97YrbOmOfqT-gu-8" value="&lt;font style=&quot;font-size: 25px;&quot;&gt;+&lt;/font&gt;" style="edgeLabel;html=1;align=center;verticalAlign=middle;resizable=0;points=[];" parent="27EXUT97YrbOmOfqT-gu-7" vertex="1" connectable="0">
          <mxGeometry x="0.5314" y="-1" relative="1" as="geometry">
            <mxPoint x="21" y="-8" as="offset" />
          </mxGeometry>
        </mxCell>
        <mxCell id="27EXUT97YrbOmOfqT-gu-43" value="&lt;font style=&quot;font-size: 15px;&quot;&gt;||&lt;/font&gt;" style="edgeLabel;html=1;align=center;verticalAlign=middle;resizable=0;points=[];" parent="27EXUT97YrbOmOfqT-gu-7" vertex="1" connectable="0">
          <mxGeometry x="-0.2854" y="-6" relative="1" as="geometry">
            <mxPoint as="offset" />
          </mxGeometry>
        </mxCell>
        <mxCell id="27EXUT97YrbOmOfqT-gu-13" value="" style="curved=1;endArrow=classic;html=1;rounded=0;exitX=0.5;exitY=1;exitDx=0;exitDy=0;entryX=1;entryY=0.5;entryDx=0;entryDy=0;" parent="1" source="27EXUT97YrbOmOfqT-gu-22" target="27EXUT97YrbOmOfqT-gu-24" edge="1">
          <mxGeometry width="50" height="50" relative="1" as="geometry">
            <mxPoint x="640" y="410" as="sourcePoint" />
            <mxPoint x="550" y="485" as="targetPoint" />
            <Array as="points">
              <mxPoint x="640" y="470" />
            </Array>
          </mxGeometry>
        </mxCell>
        <mxCell id="27EXUT97YrbOmOfqT-gu-14" value="&lt;font style=&quot;font-size: 25px;&quot;&gt;+&lt;/font&gt;" style="edgeLabel;html=1;align=center;verticalAlign=middle;resizable=0;points=[];" parent="27EXUT97YrbOmOfqT-gu-13" vertex="1" connectable="0">
          <mxGeometry x="0.5314" y="-1" relative="1" as="geometry">
            <mxPoint x="-25" y="-18" as="offset" />
          </mxGeometry>
        </mxCell>
        <mxCell id="27EXUT97YrbOmOfqT-gu-16" value="" style="curved=1;endArrow=classic;html=1;rounded=0;exitX=0.173;exitY=-0.084;exitDx=0;exitDy=0;entryX=0.45;entryY=1.084;entryDx=0;entryDy=0;entryPerimeter=0;exitPerimeter=0;" parent="1" source="27EXUT97YrbOmOfqT-gu-24" target="27EXUT97YrbOmOfqT-gu-21" edge="1">
          <mxGeometry width="50" height="50" relative="1" as="geometry">
            <mxPoint x="390" y="485" as="sourcePoint" />
            <mxPoint x="266.0799999999999" y="490.20000000000005" as="targetPoint" />
            <Array as="points">
              <mxPoint x="390" y="420" />
            </Array>
          </mxGeometry>
        </mxCell>
        <mxCell id="27EXUT97YrbOmOfqT-gu-17" value="&lt;font style=&quot;font-size: 25px;&quot;&gt;+&lt;/font&gt;" style="edgeLabel;html=1;align=center;verticalAlign=middle;resizable=0;points=[];" parent="27EXUT97YrbOmOfqT-gu-16" vertex="1" connectable="0">
          <mxGeometry x="0.5314" y="-1" relative="1" as="geometry">
            <mxPoint x="-13" y="-4" as="offset" />
          </mxGeometry>
        </mxCell>
        <mxCell id="27EXUT97YrbOmOfqT-gu-21" value="&lt;span style=&quot;font-size: 14px;&quot;&gt;Кол-во полезной работы скорой&lt;/span&gt;" style="text;html=1;align=center;verticalAlign=middle;whiteSpace=wrap;rounded=0;fontSize=14;" parent="1" vertex="1">
          <mxGeometry x="340" y="280" width="120" height="50" as="geometry" />
        </mxCell>
        <mxCell id="27EXUT97YrbOmOfqT-gu-22" value="&lt;font style=&quot;font-size: 14px;&quot;&gt;Доверие к скорой&lt;/font&gt;" style="text;html=1;align=center;verticalAlign=middle;whiteSpace=wrap;rounded=0;fontSize=14;" parent="1" vertex="1">
          <mxGeometry x="580" y="350" width="120" height="50" as="geometry" />
        </mxCell>
        <mxCell id="2QL4mxiihr0PVNA0YmGN-18" style="edgeStyle=orthogonalEdgeStyle;rounded=0;orthogonalLoop=1;jettySize=auto;html=1;entryX=1.002;entryY=0.515;entryDx=0;entryDy=0;entryPerimeter=0;exitX=0.5;exitY=1;exitDx=0;exitDy=0;curved=1;" edge="1" parent="1" source="27EXUT97YrbOmOfqT-gu-24" target="2QL4mxiihr0PVNA0YmGN-3">
          <mxGeometry relative="1" as="geometry">
            <mxPoint x="560.0000000000002" y="718" as="targetPoint" />
          </mxGeometry>
        </mxCell>
        <mxCell id="27EXUT97YrbOmOfqT-gu-24" value="&lt;font style=&quot;font-size: 14px;&quot;&gt;Кол-во обращений&lt;/font&gt;" style="text;html=1;align=center;verticalAlign=middle;whiteSpace=wrap;rounded=0;fontSize=14;" parent="1" vertex="1">
          <mxGeometry x="470" y="460" width="120" height="50" as="geometry" />
        </mxCell>
        <mxCell id="27EXUT97YrbOmOfqT-gu-25" value="&lt;font style=&quot;font-size: 14px;&quot;&gt;Скорость реакции на обращение&lt;/font&gt;" style="text;html=1;align=center;verticalAlign=middle;whiteSpace=wrap;rounded=0;fontSize=14;" parent="1" vertex="1">
          <mxGeometry x="490" y="150" width="120" height="50" as="geometry" />
        </mxCell>
        <mxCell id="27EXUT97YrbOmOfqT-gu-26" value="" style="curved=1;endArrow=classic;html=1;rounded=0;exitX=0;exitY=0.5;exitDx=0;exitDy=0;entryX=0.75;entryY=0;entryDx=0;entryDy=0;" parent="1" source="27EXUT97YrbOmOfqT-gu-25" target="27EXUT97YrbOmOfqT-gu-21" edge="1">
          <mxGeometry width="50" height="50" relative="1" as="geometry">
            <mxPoint x="354" y="200" as="sourcePoint" />
            <mxPoint x="474" y="220" as="targetPoint" />
            <Array as="points">
              <mxPoint x="440" y="220" />
            </Array>
          </mxGeometry>
        </mxCell>
        <mxCell id="27EXUT97YrbOmOfqT-gu-27" value="&lt;font style=&quot;font-size: 25px;&quot;&gt;+&lt;/font&gt;" style="edgeLabel;html=1;align=center;verticalAlign=middle;resizable=0;points=[];" parent="27EXUT97YrbOmOfqT-gu-26" vertex="1" connectable="0">
          <mxGeometry x="0.5314" y="-1" relative="1" as="geometry">
            <mxPoint x="21" y="-8" as="offset" />
          </mxGeometry>
        </mxCell>
        <mxCell id="27EXUT97YrbOmOfqT-gu-28" value="&lt;font style=&quot;font-size: 14px;&quot;&gt;Кол-во свободных машин&lt;/font&gt;" style="text;html=1;align=center;verticalAlign=middle;whiteSpace=wrap;rounded=0;fontSize=14;" parent="1" vertex="1">
          <mxGeometry x="740" y="210" width="120" height="50" as="geometry" />
        </mxCell>
        <mxCell id="27EXUT97YrbOmOfqT-gu-29" value="" style="curved=1;endArrow=classic;html=1;rounded=0;exitX=0;exitY=0;exitDx=0;exitDy=0;entryX=1;entryY=0.25;entryDx=0;entryDy=0;" parent="1" source="27EXUT97YrbOmOfqT-gu-28" target="27EXUT97YrbOmOfqT-gu-25" edge="1">
          <mxGeometry width="50" height="50" relative="1" as="geometry">
            <mxPoint x="700" y="200" as="sourcePoint" />
            <mxPoint x="640" y="305" as="targetPoint" />
            <Array as="points">
              <mxPoint x="680" y="150" />
            </Array>
          </mxGeometry>
        </mxCell>
        <mxCell id="27EXUT97YrbOmOfqT-gu-30" value="&lt;font style=&quot;font-size: 25px;&quot;&gt;+&lt;/font&gt;" style="edgeLabel;html=1;align=center;verticalAlign=middle;resizable=0;points=[];" parent="27EXUT97YrbOmOfqT-gu-29" vertex="1" connectable="0">
          <mxGeometry x="0.5314" y="-1" relative="1" as="geometry">
            <mxPoint x="21" y="-8" as="offset" />
          </mxGeometry>
        </mxCell>
        <mxCell id="27EXUT97YrbOmOfqT-gu-31" value="" style="curved=1;endArrow=classic;html=1;rounded=0;exitX=1;exitY=1;exitDx=0;exitDy=0;entryX=0.5;entryY=1;entryDx=0;entryDy=0;" parent="1" source="27EXUT97YrbOmOfqT-gu-24" target="27EXUT97YrbOmOfqT-gu-28" edge="1">
          <mxGeometry width="50" height="50" relative="1" as="geometry">
            <mxPoint x="827" y="595" as="sourcePoint" />
            <mxPoint x="697" y="553" as="targetPoint" />
            <Array as="points">
              <mxPoint x="780" y="520" />
            </Array>
          </mxGeometry>
        </mxCell>
        <mxCell id="27EXUT97YrbOmOfqT-gu-32" value="&lt;font style=&quot;font-size: 25px;&quot;&gt;-&lt;/font&gt;" style="edgeLabel;html=1;align=center;verticalAlign=middle;resizable=0;points=[];" parent="27EXUT97YrbOmOfqT-gu-31" vertex="1" connectable="0">
          <mxGeometry x="0.5314" y="-1" relative="1" as="geometry">
            <mxPoint x="-13" y="-83" as="offset" />
          </mxGeometry>
        </mxCell>
        <mxCell id="2QL4mxiihr0PVNA0YmGN-26" style="edgeStyle=orthogonalEdgeStyle;rounded=0;orthogonalLoop=1;jettySize=auto;html=1;entryX=0;entryY=0.5;entryDx=0;entryDy=0;curved=1;" edge="1" parent="1" source="2QL4mxiihr0PVNA0YmGN-1" target="27EXUT97YrbOmOfqT-gu-24">
          <mxGeometry relative="1" as="geometry">
            <Array as="points">
              <mxPoint x="300" y="485" />
              <mxPoint x="300" y="485" />
            </Array>
          </mxGeometry>
        </mxCell>
        <mxCell id="2QL4mxiihr0PVNA0YmGN-1" value="Эпидемиологическая&amp;nbsp;&lt;div style=&quot;font-size: 14px;&quot;&gt;&lt;span style=&quot;background-color: initial; font-size: 14px;&quot;&gt;угроза&lt;/span&gt;&lt;br style=&quot;font-size: 14px;&quot;&gt;&lt;/div&gt;" style="text;html=1;align=center;verticalAlign=middle;resizable=0;points=[];autosize=1;strokeColor=none;fillColor=none;fontSize=14;" vertex="1" parent="1">
          <mxGeometry x="70" y="465" width="170" height="50" as="geometry" />
        </mxCell>
        <mxCell id="2QL4mxiihr0PVNA0YmGN-2" value="Ест. убыль&amp;nbsp;&lt;div style=&quot;font-size: 14px;&quot;&gt;населения&lt;/div&gt;" style="text;html=1;align=center;verticalAlign=middle;resizable=0;points=[];autosize=1;strokeColor=none;fillColor=none;fontSize=14;" vertex="1" parent="1">
          <mxGeometry x="185" y="610" width="100" height="50" as="geometry" />
        </mxCell>
        <mxCell id="2QL4mxiihr0PVNA0YmGN-3" value="Выживаемость&lt;div style=&quot;font-size: 14px;&quot;&gt;больных&lt;/div&gt;" style="text;html=1;align=center;verticalAlign=middle;resizable=0;points=[];autosize=1;strokeColor=none;fillColor=none;fontSize=14;" vertex="1" parent="1">
          <mxGeometry x="345" y="715" width="120" height="50" as="geometry" />
        </mxCell>
        <mxCell id="2QL4mxiihr0PVNA0YmGN-12" style="edgeStyle=orthogonalEdgeStyle;rounded=0;orthogonalLoop=1;jettySize=auto;html=1;entryX=0.403;entryY=0.991;entryDx=0;entryDy=0;entryPerimeter=0;curved=1;" edge="1" parent="1" source="2QL4mxiihr0PVNA0YmGN-3" target="2QL4mxiihr0PVNA0YmGN-2">
          <mxGeometry relative="1" as="geometry" />
        </mxCell>
        <mxCell id="2QL4mxiihr0PVNA0YmGN-24" style="edgeStyle=orthogonalEdgeStyle;rounded=0;orthogonalLoop=1;jettySize=auto;html=1;entryX=0.25;entryY=1;entryDx=0;entryDy=0;curved=1;exitX=1.069;exitY=0.385;exitDx=0;exitDy=0;exitPerimeter=0;" edge="1" parent="1" source="2QL4mxiihr0PVNA0YmGN-2" target="27EXUT97YrbOmOfqT-gu-24">
          <mxGeometry relative="1" as="geometry">
            <mxPoint x="320.00000000000045" y="610" as="sourcePoint" />
            <mxPoint x="444.00000000000045" y="530" as="targetPoint" />
            <Array as="points">
              <mxPoint x="286" y="630" />
              <mxPoint x="500" y="630" />
            </Array>
          </mxGeometry>
        </mxCell>
        <mxCell id="2QL4mxiihr0PVNA0YmGN-30" value="+" style="text;html=1;align=center;verticalAlign=middle;resizable=0;points=[];autosize=1;strokeColor=none;fillColor=none;fontSize=25;" vertex="1" parent="1">
          <mxGeometry x="410" y="493" width="40" height="40" as="geometry" />
        </mxCell>
        <mxCell id="2QL4mxiihr0PVNA0YmGN-31" value="+" style="text;html=1;align=center;verticalAlign=middle;resizable=0;points=[];autosize=1;strokeColor=none;fillColor=none;fontSize=25;" vertex="1" parent="1">
          <mxGeometry x="490" y="730" width="40" height="40" as="geometry" />
        </mxCell>
        <mxCell id="2QL4mxiihr0PVNA0YmGN-32" value="+" style="text;html=1;align=center;verticalAlign=middle;resizable=0;points=[];autosize=1;strokeColor=none;fillColor=none;fontSize=25;" vertex="1" parent="1">
          <mxGeometry x="135" y="640" width="40" height="40" as="geometry" />
        </mxCell>
        <mxCell id="2QL4mxiihr0PVNA0YmGN-33" value="-" style="text;html=1;align=center;verticalAlign=middle;resizable=0;points=[];autosize=1;strokeColor=none;fillColor=none;fontSize=25;" vertex="1" parent="1">
          <mxGeometry x="455" y="533" width="30" height="40" as="geometry" />
        </mxCell>
        <mxCell id="2QL4mxiihr0PVNA0YmGN-34" value="-" style="text;html=1;align=center;verticalAlign=middle;resizable=0;points=[];autosize=1;strokeColor=none;fillColor=none;fontSize=25;" vertex="1" parent="1">
          <mxGeometry x="190" y="675" width="30" height="40" as="geometry" />
        </mxCell>
        <mxCell id="2QL4mxiihr0PVNA0YmGN-36" style="edgeStyle=orthogonalEdgeStyle;rounded=0;orthogonalLoop=1;jettySize=auto;html=1;entryX=-0.041;entryY=0.492;entryDx=0;entryDy=0;entryPerimeter=0;curved=1;" edge="1" parent="1" source="2QL4mxiihr0PVNA0YmGN-1" target="2QL4mxiihr0PVNA0YmGN-2">
          <mxGeometry relative="1" as="geometry">
            <Array as="points">
              <mxPoint x="120" y="635" />
            </Array>
          </mxGeometry>
        </mxCell>
      </root>
    </mxGraphModel>
  </diagram>
</mxfile>
